<svg xmlns="http://www.w3.org/2000/svg" viewBox="0 0 914.280273 538.588867">
  <defs>
    <style>
      @font-face{font-family:&quot;Virgil&quot;;src:url(https://excalidraw.com/Virgil.woff2)}@font-face{font-family:&quot;Cascadia&quot;;src:url(https://excalidraw.com/Cascadia.woff2)}
    </style>
  </defs>
  <path fill="#fff" d="M0 0h914.280273v538.588867H0z"/>
  <path fill="none" stroke="#000" stroke-linecap="round" d="M594.748828 230.33043c88.35 2.63 180.37 1.09 300.37.56m-301.25-.05c79.81-.38 159.82.86 301.06.81m-.55-1.39c.86 106.58 1.52 210.32 1.22 282.28m-1.62-281.84c1.64 78.37 2.48 157.29.4 282.79m.2-1.61c-76.15 3.74-152.16 1.84-299.81 2.22m299.65-.88c-74.74-1.49-150.02-1.7-301.05.11m-.1-1.18c.71-112.18 1.91-224.38-.55-281.1m.73 281.55c-1.11-56.64-.82-114.7-.6-281"/>
  <text y="18" font-family="Virgil, Segoe UI Emoji" font-size="20" style="white-space:pre" transform="translate(712.552734 255.827148)">GCP</text>
  <path fill="none" stroke="#000" stroke-linecap="round" d="M627.680156 295.685352c88.96-.51 179.93 1.61 247.44.53m-247.65.32c52.35-1.79 104.42-2.36 247.51-1.19m2.19-.02c-2.32 69.94-1.33 135.81-2.44 195.14m.84-193.9c.84 43.73 2.01 88.12-.89 194.68m2.03 1.23c-97.86-1.64-193.54-1.83-249.23-1.2m247.66.33c-76.03-1.43-153.62-1.05-248.86-1.04m-.71.66c-1.14-54.56-.18-110.83.42-196.41m-.25 197.13c.93-74.91 1.05-148.55.15-195.75"/>
  <text y="18" font-family="Virgil, Segoe UI Emoji" font-size="20" style="white-space:pre" transform="translate(707.40039 309.987305)">Big Query</text>
  <text y="14" font-family="Virgil, Segoe UI Emoji" font-size="16" style="white-space:pre" transform="translate(647.330078 342.297852)">openshift-ci-data-analysis</text>
  <g fill="none" stroke-linecap="round">
    <path stroke="#fab005" stroke-width=".5" d="M650.62793 414.797852s0 0 0 0m0 0s0 0 0 0m-.72 5.77c1.43-.81 3.96-3.46 6.25-4.85m-5.94 5.74c1.81-2.1 3.38-4.22 5.09-6.08m-4.3 11.31c2.37-3.29 5.52-6.54 10.55-11.35m-10.29 11.31c2.1-3.16 3.58-5.88 10.75-12.22m-11.32 19c3.31-4.67 7.06-10.55 15.11-16.43m-14.65 16.92c4.31-6.82 10.43-13.55 15.75-19.74m-16.94 24.02c7.12-5.67 12.25-10.9 20.47-23.31m-20.17 23.56c5.96-4.94 10.12-10.4 22-24.51m-22.09 30.59c8.3-8.68 17.85-19.5 24.8-30.28m-23.42 30.67c4.15-6.09 10.63-12.4 25.84-28.9m-26.85 34.97c12.17-15.65 26.61-31.01 30.66-35.14m-30.43 33.85c7.83-7.71 12.88-13.37 31.87-34m-26.49 32.89c8.7-9.43 22.48-22.17 32.37-33.98m-32.28 36.43c7.32-7.55 13.14-15.46 31.38-35.58m-23.7 33.36c4.88-7.83 11.59-16.49 29.89-32.77m-32.34 34.9c11.7-12.56 20.8-24.29 31.13-36.7m-23.53 34.7c4.85-4.79 10.56-15.64 29.6-34.26m-31.43 36.68c10.9-13.04 22.16-25.08 31.31-35.57m-24.88 36.73c10.81-14.32 23.85-28.14 31.62-38.01m-32.41 36c9.11-11.31 19.25-22.9 31.68-36.68m-25.32 36.21c10.09-11.38 16.85-21.85 28.52-34.61m-29.31 34.92c9.86-11.85 20.6-24.08 29.39-35.92m-26.5 35.24c12.36-12.15 27.5-24.77 34.49-36.02m-33.8 37.55c8.72-10.68 17.85-19.98 33.11-35.97m-26.41 35.16c13.43-13.85 24.89-29.16 29.58-34.23m-29.78 33.56c7.72-6.51 14.4-14.5 30.26-33.91m-24.12 36.65c6.8-10.36 13.97-15.75 32.11-39.29m-33.13 38.02c6.37-8.26 12.9-16.77 30.46-36.35m-23.36 35c10.52-10.73 20.96-24.73 30.25-33.32m-31.67 34.27c10.32-11.09 18.27-21.6 30.07-36.31m-25.2 38.17c11.39-16.9 21.85-26.9 30.43-36.5m-30.85 33.78c11.39-11.94 21.85-24.96 31.64-36.34m-25.74 37.99c7.19-12.75 18.66-21.33 32.97-37.07m-33.79 34.94c8.91-7.86 17.02-16.55 32.47-35.4m-24.7 38.31c9.79-12.61 20.19-24.34 28.42-37.36m-30.91 34.99c9.42-9.8 18.29-17.54 32.05-35.97m-27.13 38.13c11.87-9.81 18.29-19.81 33.19-35.71m-31.95 34.74c12.7-15.42 24.24-28.68 30.6-36.95m-26.06 35.82c9.54-12.45 23.5-25.29 34-36.57m-33.71 36.52c7.93-7.73 14.47-15.37 32.58-34.75m-26.15 36.19c7.62-7.35 11.55-15.74 31.38-36.42m-31.94 34.99c6.84-7.61 11.97-15.18 31.13-34.22m-24.3 34.74c7.38-10.04 14.22-14.59 27.49-37.09m-28.5 36.22c9.06-11.29 19.52-22.32 30.98-34.95m-24.75 35.97c10.21-11.49 17.16-21.45 28.97-35.43m-30.52 34.32c7.34-7.42 14.21-16.42 30.19-34m-24.92 35.37c12.53-14.95 23.03-27.18 32.15-37.12m-32.98 36.96c7.25-7.86 12.59-13.59 32.45-36.62m-25.89 36.26c7.19-8.2 12.19-17.16 32.43-33.92m-32.44 33.56c11.06-12.79 22.53-25.45 31.42-34.56m-24.91 35.28c7.49-10.16 16-21.88 30.28-37.62m-32.37 37.05c8.9-9.22 15.84-17.46 31.74-35.02m-24.56 33.4c5.7-5.41 13.8-12.19 29.21-34.09m-29.46 34.77c9.43-12.24 21.17-25.35 30-33.66m-25.84 34.26c9.67-11.23 19.48-22.77 29.82-33.28m-29.02 34.31c11.13-14.09 23.57-28.36 29.75-35.66m-25.42 35.2c12.95-15.52 26.1-26.64 31.76-35.16m-31.29 34.28c10.81-10.74 20.85-22.82 30.55-34.6m-24.74 35.45c10.05-12.62 20.58-26.26 31.74-35.81m-32.78 36.28c9.92-12.6 21.54-23.8 30.88-35.58m-25.83 36.03c9.54-9.26 14.27-15.65 30.2-38.08m-29.29 38.37c7.6-9.52 14.6-18.5 29.87-36.89m-25.18 36.18c8.93-11.49 16.16-19.52 29.99-37.91m-29.96 37.25c10.76-13.54 23.18-26.5 31.01-35.3m-24.15 36.75c6.07-11.33 12.91-20.67 29.65-38.55m-30.85 37.3c6.64-8.91 14.77-17.64 30.33-35.29m-24.24 37.08c5.51-10.39 9.9-16.92 31.51-37.29m-32.39 35.23c8.33-10.33 17.5-20.34 31.57-34.83m-24.77 36.23c5.32-8.94 10.53-15.56 30.24-35.52m-32.3 34.85c9.73-11.51 19.31-21.83 31.71-36.35m-27.52 37.05c13.79-13.68 24.64-26.69 32.27-36.65m-30.35 34.98c8.01-8.44 16.22-18.74 31.44-35.72m-26.42 35.39c8.59-10.19 15.58-18.68 32.41-36.19m-33.29 38.24c11.74-12.94 22.21-26.42 32.66-37.31m-28.14 34.23c13.69-10.44 26.24-24.1 33.22-31.69m-31.62 32.97c7.4-9.06 15.84-18.46 31.01-34.97m-27.82 34.87c14.85-11.7 25.34-26.87 32.3-35.26m-31.16 36.46c6.5-7.16 14.15-14.13 30.01-35.47m-22.39 35.54c4.19-6.39 13.01-16.68 22.39-28.32m-24.55 27.64c8.51-10.22 17.13-19.2 26.29-28.31m-20.87 29.32c5.6-8.41 16.28-15.04 20.5-24.88m-20.67 25.16c5.09-7.3 9.51-11.67 19.57-24.03m-13.58 21.61c6.49-5.1 11.16-8.44 15.42-13m-15.56 14.7c5.68-7.27 11.32-11.42 13.32-16.55m-6.54 16.58c1-3.55 6.7-8.58 6.71-10.04m-7.39 9.35c1.52-2.46 3.2-5.09 8.09-9.69m-3.01 9.56c1.2-1.3 1.47-2.21 2.99-3.64m-3.15 3.98c1.09-1.58 2.45-2.75 3.19-3.82"/>
    <path stroke="#000" d="M650.01793 413.277852c53.41 2.36 106.25 2.11 203.71 2.29m-202.45-.04c77.49-2.41 155.02-2.93 204.46-.76m-.84 1.56c1.3 6.82.12 15.72-1.05 35.08m.99-36.4c1.25 9.09-.11 18.04 1.32 34.98m-1.77.58c-52.17 1.35-102.43 1.03-203.58-2.16m205.39.85c-58.21 1.59-116.56 1.19-205.72.72m-1.77.65c1.14-11.94 1.45-23.46 3.51-36m-1.74 35.31c.45-10.24-.3-21.15-.23-35.86"/>
  </g>
  <text y="18" font-family="Virgil, Segoe UI Emoji" font-size="20" style="white-space:pre" transform="translate(696.194336 419.045898)">Jobs Table</text>
  <g fill="none" stroke-linecap="round">
    <path stroke="#228be6" stroke-width=".5" d="M23.58789 47.43164s0 0 0 0m0 0s0 0 0 0m.38 6.28c.93-1.66 1.62-2.59 5.03-6.33m-5.72 6.07c1.08-.89 2.68-2.38 5.43-5.51m-3.47 10.54c-.17-3.15 4.29-5.27 8.26-11.1m-10.43 12.61c2.68-2.82 4.97-6.23 10.92-11.96m-10.73 19.59c5.66-9.75 11.75-13.54 14.55-20.37m-13.94 18.82c4.74-6.63 10.28-12.59 14.84-19.15m-13.53 22.61c3.99-5.94 13.52-14.68 20.74-23.97m-22.76 26.88c8.23-10.35 16.27-19.24 21.82-24.17m-20.14 30.86c8.69-10.81 18.37-23.43 25.71-31.25m-26.93 29.42c10.2-12.4 20.58-24.41 27.11-28.84m-25.86 37.73c8.16-15.05 21.53-28.69 31.51-39.49m-32.66 38.28c11.73-14.62 23.37-28.11 32.08-36.78m-32.23 39.77c12.12-9.03 21.18-23.72 37.48-39.93m-37.18 42.54c7.27-10.62 15.99-20.27 35.99-42.64m-36.54 48.01c12.56-15.08 23.8-27.74 41.52-47.97m-41.11 47.45c14.18-13.81 26.84-29.68 42.23-47.36m-42.28 53.13c14-17.97 27.76-35.93 48.18-53.96m-48.76 54.82c16.36-18.69 31.93-38.24 47.46-53.89m-48.02 60.77c13.11-13.14 25.95-26.75 53.2-61.2m-51.79 59.69c17.96-20.21 35.46-40.57 53.13-60.25m-51.96 68.62c18.93-23.94 36.9-41.79 55.72-68.65m-57.59 66.71c16.2-17.41 32.7-35.13 58.64-67.21m-57.37 74.06c15.03-22.21 36.21-40.44 63.38-73.23m-63.55 73.05c21.26-25.05 41.97-51.15 63.52-73.58m-63.75 78.69c13.77-15.24 29.19-36.34 67.12-80.03m-67.98 80.35c17.04-19.61 36.39-40.36 69.2-77.43m-67.83 82.43c17.42-18.11 36.36-39.51 71.83-85.1m-71.96 86.09c22.18-26.23 43.45-51.02 72.63-83.92m-73.84 91.97c31.82-36.25 59.42-70.43 78.33-93.41m-77.42 93.23c29.41-35.28 59.57-70.23 79.28-92.18m-78.58 98.68c27.06-34.95 59.03-72 80.05-95.35m-81.06 93.37c28.67-32.01 56.81-65.95 82.87-94.88m-82.5 101.1c24.65-27.1 45.54-55.17 81.07-96.77m-82.44 96.48c19.4-20.88 37.62-42.41 84.29-95.24m-84.5 104.25c29.83-35.44 57.25-65.9 85.96-97.98m-85.09 96.46c23.6-28.38 47.85-57.34 82.58-97.01m-81.14 101.43c23.94-27 50.32-58.42 82.62-94.94m-83.41 96.11c29.64-35.38 61.75-70.92 82.67-94.72m-82.17 102.14c24.91-31.03 52.06-62.29 83.54-97.59m-85.13 96.02c25.59-27.79 50.55-56.69 83.69-94.96m-81.69 101.37c16.38-22.58 34.68-40.31 81.18-96.26m-82.85 96.67c29.35-34.56 60.27-70.09 83.31-95.79m-83.06 100.9c26.38-33.5 54.39-64.1 84.58-95.24m-83.81 94.68c18.05-21.01 36.7-42.28 83.42-95.35m-85.28 101.27c27.41-29.4 55.07-61.22 86.06-95m-84.7 96.64c27.22-32.69 54.91-61.92 83.72-97.03m-83.97 101.74c20.04-23.01 43.69-45.02 83.23-94.21m-82.9 93.81c21.47-22.81 41.09-46.83 82.84-94.5m-83.09 101.96c21.88-25.23 43.33-46.62 84.23-95.48m-83.8 95.56c24.23-30.09 51.29-59.2 82.52-96.53m-85.21 101.84c18.8-20.44 37.86-42.7 83.24-95.82m-81.54 96.37c22.45-25 45.02-50.51 84.15-96.31m-83.37 103.77c27.11-30.78 53.7-62.28 84.99-96.22m-85.58 95.2c32.99-36.85 65.34-75.34 84.2-96.14m-84.41 101.63c16.39-18.77 35.6-40.37 83.46-95.85m-82.71 96.26c24.98-29.2 51.65-59.64 82.09-96.6m-81.1 101.74c30.94-33.28 60.56-69.23 79.97-94.04m-81.09 94.66c28.67-32.62 57.24-65.44 83.07-95.49m-84.71 103.54c25-31.58 48.72-57.91 84.34-96.1m-82.78 94.91c24.16-28.87 50.34-57.97 82.57-96.72m-82.35 102.41c28.97-30.72 53.11-64.53 82.44-95.73m-83.27 94.98c32.78-34.06 64.7-72.11 82.59-95.67m-81.81 102.98c30.45-37.77 59.48-70.95 84.68-96.61m-85.22 96.54c25.23-28.31 49.85-57.37 83.29-95.78m-83.93 101.04c22.48-23.73 42.64-48.75 84.74-94.58m-83.37 94.76c17.3-21.3 35.81-43.15 82.75-95.76m-83.66 101.58c34.17-36.48 63.48-74.37 81.59-95.69m-81.62 95.1c19.76-22.03 39.55-44.54 83.85-94.62m-81.69 102.4c23.95-27.08 46.75-57.81 80.8-97.9m-82.55 96.61c17.27-21.36 35.54-40.9 82.68-94.39m-84.77 101.96c35.03-39.07 68.42-74.21 85.87-97.63m-83.95 97.12c20.01-24.31 41.56-48.17 82.92-95.62m-83.54 101.72c29.68-29.83 55.08-61.87 82.92-95.23m-81.58 94.39c17.42-21.26 33.59-40.69 83.39-95.9m-83.93 102.99c19.64-23.78 41.53-49.77 83.33-97.23m-83.02 97.06c25.83-29.01 51.07-58.27 83.77-95.11m-85.16 101.99c28.11-29.85 55.38-59.8 85.76-98.36m-83.83 96.24c21.24-25.41 43.86-51.32 81.66-94.39m-82.45 100.49c25.36-28.08 48.8-56.88 81.43-95.28m-82.01 95.96c29.45-32.62 57.06-64.49 84.77-94.94m-86.25 102.64c27.81-32.56 58.16-65.46 85.57-97.09m-83.58 95.31c17.2-19.75 33.87-38.39 83.46-95.46m-85.19 102.29c32.91-34.8 59.32-66.25 85.97-94.83m-84.25 94.6c31.92-35 62.26-71.64 84.17-96.71m-84.33 104.87c33.69-40.49 62.52-77.39 81.68-99.72m-82.39 97.27c18.5-19.13 35.06-38.6 83.28-94.72m-80.29 99.46c15.75-19.02 36.41-42.37 81.07-93.18m-82.13 94.54c31.58-35.9 63.22-72.51 82.02-95.79m-82.89 100.37c30.1-31.86 56.98-66.16 83.05-92.56m-82.79 94.81c32.07-39.1 65.89-75.78 82.78-95.26m-83.44 101.04c22.76-27.62 46.72-55.95 84.53-93.64m-85.47 94.84c18.41-20.6 35.55-41.3 83.52-97.02m-82.54 102.3c21.73-22.38 40.35-47.67 84.97-96.14m-83.83 94.87c26.92-29.59 53.71-61.54 83.4-95.95m-83.57 103.31c20.44-23.03 41.27-48.43 81.15-97.98m-81.89 97.56c22.26-26.03 43.98-52.02 82.43-95.24m-80.61 100.55c28.63-32.58 57.02-68.11 81.09-93.25m-82.24 93.65c19.76-24.26 40.61-47.32 82.5-95.37m-81.19 102.51c29.27-38.5 61.01-74.45 81.4-98m-82.42 98.33c18.5-23.86 40.22-47.82 81.63-96.83m-81.51 100.5c27.93-31.4 52.92-62.6 82.67-92.71m-84.59 95.41c21.41-26.1 41.75-50.56 84.49-97.64m-83.33 101.92c29.75-32.7 58.36-66.11 82.06-95.77m-83.18 95.49c33.93-37.73 65.92-73.44 83.85-95.85m-82.37 102.24c23.42-27.12 46.35-52.87 84.03-93.8m-85.82 93.88c26.86-30.91 54.07-59.98 84.4-94.84m-81.29 101c23.52-28.52 50.04-57.19 82.28-95.57m-84.43 95.18c32.18-38.48 66.39-74.88 83.66-94.19m-85.4 99.41c21.95-23.99 45.15-46.64 85.13-93.82m-82.74 94.81c21.43-24.78 43.75-49.32 82.35-94.59m-82.93 100.23c16.75-20.04 39.08-44.16 82.84-95.71m-82.8 98.05c30.72-35.95 61.93-71.08 82.75-97.19m-80.86 100.06c29.28-32.19 61.56-67.85 80.27-92.32m-81.77 93.24c16.73-19.91 33.04-40.13 82.33-94.22m-84.37 102.29c20.22-23.04 37.88-43.14 83.55-96.96m-81.74 96.73c20.11-22.24 40.79-46.21 83.39-96.2m-82.77 100.04c23.23-26.26 51.92-55.18 82.08-95.09m-81.92 96.46c24.32-29.98 48.86-58.39 82.15-94.87m-84.27 102.88c28.13-34.69 60.72-70.3 85.85-98.14m-85.09 96.42c26.79-31.51 56.24-64.37 82.95-96.05m-81.18 101.62c29.74-36.06 65.27-75.58 80.84-93.94m-83.15 94.78c18.3-18.54 36.76-40.04 84.76-95.11m-82.84 101.66c18.12-23.86 37.12-43.13 81.57-96.29m-82.84 96.06c21.18-23.87 39.73-46.59 84.67-97.38m-83.94 102.84c27.33-28.75 53.5-59.39 81.87-95.15m-82.67 95.02c16.15-18.62 33.35-37.82 83.66-95.55m-83.56 101.55c20.78-23 41.69-44.91 84.83-94.7m-84.04 95.34c24.14-29.36 48.34-56.65 81.61-96.52m-82.9 102.24c19.85-21.4 37.81-44.67 84.12-95.04m-82.65 95.03c22.2-26.67 46.89-53.19 83.5-96.29m-85.46 103.41c29.44-33.91 56.42-66.87 83.4-94.69m-83.15 93.52c28.16-29.66 54.67-59.25 83.96-95.34m-83 101.81c22.53-24.64 40.04-47.74 84.9-96.13m-83.82 94.9c20.46-25.4 43.34-49.6 82.74-95.19m-84.83 101.39c19.96-19.56 37.84-42.84 84.12-96.03m-82.46 96.78c24.95-28.43 48.86-57.32 82.47-95.66m-84.56 103.05c27.41-30.94 52.03-58.14 84.49-95.98m-83.2 94.74c23.13-25.51 46.79-52.42 82.35-94.58m-81.48 99.57c28.83-28.92 55.74-62.27 83.41-92.53m-83.66 92.92c23.98-26.52 48.62-55.75 83.07-94.85m-82.39 103.92c28.04-37.9 60.56-71.52 82.21-99.15m-83.09 97.72c22.29-25.56 45.5-52.84 83.84-95.35m-83.84 99.07c24.2-23.55 46.39-52.05 84.11-92.24m-83.52 94.44c24.3-32.01 51.82-62.83 83.43-96.01m-85.92 101.63c31.45-35.09 63.74-73.98 84.33-97.16m-82 96.96c23.65-29.24 50.59-59.92 83.15-94.81m-85.17 101.94c21.14-24.78 44.3-48.54 83.98-94.19m-83.62 94.37c23.17-25.73 43.02-50.36 83.81-96.74m-81.05 101.87c24.06-26.91 48.55-55.5 80.15-96.57m-81.76 96.65c22.44-26.45 46.98-52.91 82.78-96.84m-84.73 104.25c33.56-36.06 64.49-71.97 83.84-96.45m-81.25 95.27c29.08-34.71 60.05-69.04 82.93-95.14m-82.39 99.58c24.53-28.25 48.7-58.17 81.99-94.93m-82.46 96.95c30.51-35.03 60.15-70.88 81.69-95.77m-81.93 102.78c24.9-31.09 51.47-62.61 83.48-96.04m-84.51 94.21c29.36-32.38 58.73-66.37 84.01-95.83m-84.29 103.41c32.1-36.35 63.05-71.99 84.47-96.03m-82.77 94.33c15.75-18.55 32.42-38.16 82.72-95.71m-78.89 96.28c25.44-29.43 54.38-63.76 80.44-91m-80 91.72c24.73-30.04 50.61-58.51 77.53-89.84m-71.99 89.68c20.43-23.86 39.85-47.24 72.7-84.85m-73.11 83.42c23.49-24.74 44.52-51.21 72.64-83.45m-65.14 84.28c16.29-19.71 32.62-37.5 64.52-76.36m-66.34 76.91c15.42-18.92 30.46-35.99 67.72-78.8m-61.5 76.85c13.04-13.94 26.28-31.13 61.84-71.25m-62.21 71.77c15.71-17.46 31.12-34.79 61.78-70.16m-58.78 69.55c12.24-11.13 25.51-25.79 57.13-63.45m-54.5 65.67c20.83-25.13 42.09-51.77 55.9-66.09m-50.37 65.53c12.7-15.35 20.35-25.54 52.17-60.79m-53.2 59.64c14.26-15.92 30.22-34.26 51.11-58.18m-45.5 60.06c14.89-17.81 26.82-33.08 47.35-54.82m-46.95 54.62c16.64-22.01 34.28-41.46 44.61-53.81m-39.86 52.58c9.78-11.4 21.86-24.57 38.99-46.02m-38.5 46.28c11.4-13.7 24.88-27.96 40.12-46.37m-36.26 45.29c11.56-6.98 18.78-20.97 37.34-37.78m-35.93 39.68c12.88-15.56 26.66-31.27 34.91-42.31m-30.01 39.56c11.68-11.49 22.79-23.94 27.94-33.71m-28.1 36.21c9.42-11.84 17.81-22.53 30.12-35.33m-25.58 34.44c7.23-8.65 11.7-16.05 24.89-27.37m-25.13 27.99c5.79-6.59 11.79-12.87 25.03-29.19m-19.24 26.8c6.26-6.68 14.79-15.34 21.63-19.94m-21.27 21.24c7.34-6.8 12.78-12.55 18.9-20.41m-13.19 22.43c6.22-6.42 8.66-10.21 14.8-17.62m-15.99 16.23c4.23-4.38 7.98-7.73 15.71-16.56m-10.19 17.21c3.63-4.61 6.62-7.63 10.59-9.6m-9.2 9.23c1.08-2.29 3.67-4.82 8.69-10.73m-4.29 11.08c1.66-1.39 2.53-3.23 3.01-4.04m-2.98 3.54c1.17-1.38 2.35-2.68 3.34-3.4"/>
    <path stroke="#000" d="M24.83789 48.05164c18.91.87 36.16-1.78 78.38-2.15m-80.59 2.13c24.35-.87 46.46-.89 81.88-1.56m-.12.98c.96 161.55 1.76 322.68 1.09 481.92m-.79-482.03c.62 174.07.72 348.09.5 481.67m-1.6 1.48c-23.72-3.55-53.93-3.39-81.95-.49m83.57-1.4c-19.77-1.41-39.76-.75-81.25-.48m.11.61c-2.46-168.64-1.07-335.13-1.24-480.68m.36 480.17c1.72-163.4 1.99-327.59-.01-480.82"/>
  </g>
  <text y="18" font-family="Virgil, Segoe UI Emoji" font-size="20" style="white-space:pre" transform="translate(10 10)">Job Primer</text>
  <path fill="none" stroke="#000" stroke-linecap="round" d="M595.72371 28.326406c77.69-1.18 153.46-1.66 307.2-.14m-307.49.65c118.47-1.06 236.73-1.1 309.16.13m-.82-.43c1.12 31.47-.57 65.01 1.84 149m-1.44-149.44c-1.29 49.83-.24 100.58-.28 151.26m.85-1.18c-117.59 1.7-233.59 2.51-310.28-.44m310.51.27c-115.62 2.77-230.74 2.03-309.43.72m-1.76 1.72c.47-59.74 1.52-114.69 3.14-152.81m-.44 151.03c-2.34-53.69-2.5-105.45-1.78-149.59"/>
  <text y="18" font-family="Virgil, Segoe UI Emoji" font-size="20" style="white-space:pre" transform="translate(714.581055 47.210937)">GitHub</text>
  <g fill="none" stroke-linecap="round">
    <path stroke="#82c91e" stroke-width=".5" d="M645.987305 94.97461s0 0 0 0m0 0s0 0 0 0m-.86 6.35c2.37-1.42 4.73-3.92 6.23-5.99m-6.01 6.18c1.7-1.31 2.68-2.52 5.99-5.89m-4.19 12.7c4.59-4.93 6.61-9.1 10.37-12.05m-11.78 11.34c3.9-3.19 6.16-7.1 10.33-12.35m-11.02 18.1c5.24-3.61 7.75-8 15.51-17.43m-14.88 17.69c6.11-6.95 11.85-13.41 16.77-18.96m-15.54 25.04c5.19-8.2 11.16-14.01 19.01-24.19m-19.4 24.06c6.47-8.58 12.53-15.25 21.02-24.83m-20.17 32.39c10.31-14.7 20.77-26.84 25.66-30.52m-27.5 27.96c8.32-9.6 18.24-19.3 26.46-29.05m-27.39 35.9c7.88-9.13 14.83-17.18 32.03-37.39m-30.03 38.29c9.24-12.05 19.89-24.28 31.17-37.86m-30.61 44.94c12.2-15.39 21.66-28.89 37.1-42.87m-38.83 41.21c13.55-15.68 27.54-30.6 37.55-41.95m-36.39 49.81c7.42-11.68 18.53-23.95 43.52-52.35m-44.37 51.34c10.03-13.56 21.39-24.2 42.59-49.78m-41.79 56.6c15.82-23.02 36.64-44.46 45.76-57.21m-45.16 56.2c9.01-12.24 21.05-25.92 46.96-55.21m-49.95 62.42c19.6-23.63 37.96-44.63 54.59-61m-52.72 59.21c12.7-14.82 25.26-30.81 52.59-60.63m-48.87 65.25c17.67-23.23 35.31-45.03 54.64-66.98m-56.31 65.15c15.56-15.98 30.44-33.81 55.11-63.58m-49.59 64.1c16.75-15.09 30.52-34.36 55.48-63.26m-56.51 64.08c17.91-21.88 35.55-42.42 58.08-64.86m-50.9 63.74c13.14-16.33 28.73-33.11 55.13-65.3m-55.97 65.71c21.21-21.94 40.1-45.65 55.35-64.02m-51.02 62.79c13.23-15.25 30.1-29.9 56.59-64.86m-56.32 67.18c13.51-15.4 25.42-29.97 56.67-65.28m-52.24 64.35c16.14-17.29 33.36-37.9 59.37-64.48m-59.06 65.42c23.76-24.85 44.24-50.73 56.23-65.12m-49.28 63.47c12.41-15.42 26.65-31.4 56.64-63.78m-57.04 64.25c20.95-23.91 41.06-47.29 56.78-65.45m-53.2 65.51c16.2-15.12 28.71-31.14 57.99-65.69m-56.53 66.46c18.17-21.04 35.95-40.17 55.38-64.91m-49.17 66.09c16.71-22.77 38.79-44.92 56.08-67.21m-56.26 65.44c18.65-21.39 37.8-42.53 55.06-64.62m-51.64 65.2c21.52-22.99 39.94-47.31 56.62-65.39m-54.73 64.99c18.15-20.51 38.13-43.71 55.82-65.16m-49.5 64.38c16.29-18.21 34.82-38.16 56.38-63.36m-58.56 64.19c19.61-22.22 41.16-45.44 57.64-65.59m-51.23 64.9c10.14-13.48 22.37-26.79 57.19-64.29m-57.86 65.2c20.42-22.92 42.45-47.95 55.47-64.41m-50.09 64.84c13.9-16.6 29.48-32.93 55.32-64.68m-55.87 63.39c12.39-15 25.61-29.6 55.54-63.86m-48.54 64.61c21.54-26.32 41.16-50.17 54.67-64.1m-55.61 64.94c17.29-20.64 33.1-39.26 55.72-64.65m-48.78 63.73c11.83-15.46 22.75-27.14 53.67-62.89m-55.04 63.42c22.39-25.45 44.45-51.35 55.22-64.71m-50.6 62.84c19.96-21.75 40.11-43.23 57.01-63.51m-56.15 64.87c19.39-24.91 40.47-47.31 55.46-65.43m-50.42 64.05c17.19-19.1 37.56-40.17 55.23-64.42m-54.94 64.65c14.95-15.23 28.53-31.72 54.64-62.67m-49.97 65.12c12.51-16.61 27.73-35.42 57.16-66.21m-57.14 65.32c20.29-23.46 40.27-47.35 57.11-65.76m-49.89 64.61c12.75-14.81 27.6-33.8 53.45-65.49m-56.11 65.44c16.7-18.39 33.76-36.81 55.97-64.51m-50.42 64.01c16.08-17.03 31.92-36.08 57.07-64.94m-56.7 65.42c13.41-15.29 26.62-31.36 56.55-64.18m-51.07 64.95c24.15-27.16 45.61-52.92 54.79-63.29m-55.05 62.37c17.71-18.93 34.17-39.94 56.87-64.51m-51.23 65.32c17.97-20.79 36.39-44.36 55.71-65.38m-56.47 65.97c19.55-21.8 38.53-44.72 57.18-64.7m-49.86 64.41c11.47-15.1 23.35-26.35 54.7-64.04m-55.24 63.26c19.95-24.79 42.54-51.42 54.47-64.43m-52.17 63.11c22.08-18.94 39.06-43.3 57.01-62.23m-54.53 64.54c14.79-18.35 31.77-36.32 55.91-64.84m-51.19 63.05c18.67-18.08 34.95-38.91 57.63-62.92m-58.16 64.16c21.86-25.47 43.14-50.09 57.42-63.55m-50.53 64.74c15.8-21.94 33.3-39.44 53.93-67.2m-54.5 66.43c19.3-22.24 38.95-44.95 55.13-65.63m-48.63 65.48c11.75-16.2 30.18-32.98 53.69-64.91m-54.93 65.14c20.6-23.86 40.06-47.5 56.54-65.4m-52.15 65.8c17.8-22.02 33.41-39.72 56.43-64.99m-56.44 63.68c15.13-17.42 31.33-36.61 56.74-63.6m-52.83 62.83c15.2-16.49 32.95-35.09 60.03-61.7m-58.67 64.18c11.66-15.43 23.92-27.76 56.14-64.73m-50.33 63.18c14.89-14.24 30.29-32.82 54.8-64.56m-55.25 65.29c16.21-18.33 31.34-34.54 55.47-64m-49.74 63.45c17.39-17.69 31.78-37.99 50.84-57.43m-51.56 58.02c11.9-12.19 22.45-25.15 50.14-57.3m-45.05 57.23c10.03-10.47 22.82-24.75 47.82-54.04m-45.8 53.2c16.45-17.36 31.31-36.54 45.06-51.81m-39.18 51.95c9.03-13.66 19.89-23.26 39.89-44.85m-42.31 45.17c10.62-11.42 22.14-23.83 40.5-45.89m-32.96 45.86c9.02-11.17 16.55-18.72 34.27-40.44m-35.46 40.96c8.79-10.57 20.32-21.86 33.73-41.36m-29.96 40.55c12.73-11.97 23.25-21.73 29.23-33.42m-27.94 33.11c7.07-7.19 15.39-15.58 29.96-32.53m-22.54 33.02c4.38-6.21 11.55-14 23.45-27.72m-25.57 26.79c9.73-10.06 18.85-19.79 24.73-26.42m-21.44 28.16c5.43-6.16 12.47-9.36 21.31-20.35m-18.81 20.34c4.92-6.09 10.68-13.11 18.15-21.51m-13.17 20.64c5.29-5.41 9.55-7.16 11.64-15.11m-10.95 14.91c2.52-5.03 8.05-8.6 12.75-14.52m-8.77 15.56c2.9-3.97 7.11-9.17 7.92-11.14m-7.07 10.28c2.62-2.92 5.08-6.2 8.35-9.04m-3.07 9.12c.19-.93 1.14-1.32 2.52-3.32m-2.68 3.21c.98-.85 1.92-1.88 2.51-2.9"/>
    <path stroke="#000" d="M647.607305 94.40461c69.66-.28 137.95.4 205.52 1.32m-206.81-1.38c64.54-.74 128.71.43 204.6.58m1.45-1.01c-1.85 24.76.47 47.58-.04 62.96m-1.33-62.48c.98 22.22.21 44.29 1.45 63.87m-1-1.38c-80.79.63-165.09-.31-204.16-.81m204.55 2.03c-81.24-2.09-162.58-1.11-205.15.25m-1.13-1.57c1.6-21.32 2.36-46 1.49-60.19m-1.25 60.68c-.74-14.02-1.25-29.25.79-61.57"/>
  </g>
  <text y="18" font-family="Virgil, Segoe UI Emoji" font-size="20" style="white-space:pre" transform="translate(661.66211 113.03418)">openshift/release</text>
  <g stroke-linecap="round">
    <path fill="none" stroke="#000" stroke-width="2" d="M115.89129 89.221004c77.41-.02 386.49-.83 463.79-1.34m-465.08.89c77.38-.37 387.24-2.4 464.73-2.71"/>
    <path fill="none" stroke="#000" stroke-width="2" d="M145.94129 80.781004c-8.58 2.9-19.03 4.18-30.31 7.22m29.16-8.78c-12.05 4.67-22.62 7.29-28.07 10.93"/>
    <path fill="none" stroke="#000" stroke-width="2" d="M145.99129 101.301004c-8.57-2.67-19.05-6.96-30.36-13.3m29.21 11.74c-11.92-3.47-22.51-9-28.12-9.59M553.08129 98.361004c6.72-2.88 11.55-7.23 25.99-13.52m-27.15 11.97c10.45-4 22.23-9.62 28.24-9.82"/>
    <path fill="none" stroke="#000" stroke-width="2" d="M552.97129 77.841004c6.74 2.69 11.6 3.91 26.1 7m-27.26-8.55c10.35 4.14 22.17 6.67 28.35 10.7"/>
  </g>
  <g stroke-linecap="round">
    <path fill="none" stroke="#000" stroke-width="2" d="M120.674922 141.673515c21.5 4.22 129.26 15.08 128.75 24.95-.51 9.86-109.97 28.4-131.8 34.26m5.06-60.11c21.4 3.89 126.79 13.93 125.8 24.1-1 10.16-110.19 30.56-131.77 36.89"/>
    <path fill="none" stroke="#000" stroke-width="2" d="M142.304922 185.363515c-5.51 3.52-14.29 8.96-25.52 16.42m25.78-16.26c-11.38 6.17-19.76 11.98-26.37 15.54"/>
    <path fill="none" stroke="#000" stroke-width="2" d="M146.974922 205.353515c-6.64-1.45-16.58-.94-30.19-3.57m30.46 3.72c-13.25-1.62-23.46-3.63-31.05-4.44"/>
  </g>
  <text y="18" font-family="Virgil, Segoe UI Emoji" font-size="20" style="white-space:pre" transform="translate(261.171875 58.475586)">Fetch List of Jobs</text>
  <text y="18" font-family="Virgil, Segoe UI Emoji" font-size="20" style="white-space:pre" transform="translate(264.30664 152.264648)">Generate list text file</text>
  <g font-family="Virgil, Segoe UI Emoji" font-size="20">
    <text y="18" style="white-space:pre" transform="translate(266.419922 262.368164)">Parse job names </text>
    <text y="43" style="white-space:pre" transform="translate(266.419922 262.368164)">(network, topology, type)</text>
  </g>
  <g stroke-linecap="round">
    <path fill="none" stroke="#000" stroke-width="2" d="M120.682617 433.739553c86.37-.06 431.11.62 517.25.68m-515.18 1.64c86.28-.4 427.81-2.53 514.02-3.18"/>
    <path fill="none" stroke="#000" stroke-width="2" d="M607.742617 442.659553c8.37-2.71 13.51-3.39 29.69-7.98m-28.92 8.82c5.58-2.33 12.17-4.78 28.13-10.93"/>
    <path fill="none" stroke="#000" stroke-width="2" d="M607.602617 422.139553c8.48 1.41 13.65 4.86 29.83 12.54m-29.06-11.7c5.45 1.89 12.07 3.65 28.27 9.59"/>
  </g>
  <text y="18" font-family="Virgil, Segoe UI Emoji" font-size="20" style="white-space:pre" transform="translate(273.207031 394.46289)">Update Jobs Table</text>
  <g stroke-linecap="round">
    <path fill="none" stroke="#000" stroke-width="2" d="M121.257422 265.714452c21.3 4.08 128.55 13.49 128.23 23.61-.33 10.13-108.37 30.95-130.16 37.15m.42-61.71c21.09 4.29 128.76 15.77 128.66 25.72-.1 9.95-107.74 28.33-129.26 33.98"/>
    <path fill="none" stroke="#000" stroke-width="2" d="M144.887422 308.144452c-9.89 7.44-15.95 11.69-24.57 17.85m23.61-17.31c-7.36 5.08-13.81 8.27-24.96 14.99"/>
    <path fill="none" stroke="#000" stroke-width="2" d="M149.157422 328.224452c-11.17.89-18.62-1.41-28.84-2.23m27.88 2.77c-8.45-.44-16.07-2.74-29.23-5.09"/>
  </g>
</svg>